<svg xmlns="http://www.w3.org/2000/svg" width="60" height="60" viewBox="0 0 60 60" fill="none"><path d="M26.8613 54.6127C25.9189 54.6127 25.1514 53.8458 25.1514 52.9035V29.9577C25.1514 29.0154 25.9189 28.2485 26.8613 28.2485H49.8056C50.7479 28.2485 51.5155 29.0154 51.5155 29.9577V52.9035C51.5155 53.8458 50.7479 54.6127 49.8056 54.6127H26.8613Z" fill="white"></path><path d="M49.808 28.6248C50.5424 28.6248 51.1405 29.2229 51.1405 29.9574V52.9032C51.1405 53.6376 50.5424 54.2357 49.808 54.2357H26.8621C26.1277 54.2357 25.5296 53.6376 25.5296 52.9032V29.9574C25.5296 29.2229 26.1277 28.6248 26.8621 28.6248H49.808ZM49.808 27.8716H26.8621C25.7104 27.8716 24.7764 28.8056 24.7764 29.9574V52.9032C24.7764 54.0549 25.7104 54.989 26.8621 54.989H49.808C50.9597 54.989 51.8938 54.0549 51.8938 52.9032V29.9574C51.8938 28.8056 50.9597 27.8716 49.808 27.8716Z" fill="#3B33C8"></path><path d="M38.3341 31.6379C43.7334 31.6379 48.1265 36.0309 48.1265 41.4303C48.1265 46.8296 43.7334 51.2227 38.3341 51.2227C32.9347 51.2227 28.5417 46.8296 28.5417 41.4303C28.5417 36.0309 32.9347 31.6379 38.3341 31.6379ZM38.3341 30.1313C32.1038 30.1313 27.0352 35.2 27.0352 41.4303C27.0352 47.6605 32.1038 52.7292 38.3341 52.7292C44.5643 52.7292 49.633 47.6605 49.633 41.4303C49.633 35.2 44.5643 30.1313 38.3341 30.1313Z" fill="#F05D86"></path><path d="M32.3133 44.3897L35.5448 38.741L37.1334 39.6569L33.9012 45.3056L32.3133 44.3897ZM37.5326 33.9382C37.6893 33.8546 37.8836 33.905 37.9801 34.0549C38.6633 35.12 41.1099 38.9172 42.5222 41.6433L41.1325 42.3815C39.6463 39.6486 37.8814 35.5547 37.3782 34.3713C37.3097 34.2093 37.3767 34.021 37.5326 33.9382ZM43.3666 43.5829L42.6194 41.8271L41.2311 42.566L42.2684 44.1682L43.3666 43.5829ZM43.4374 43.8518L44.9718 46.1726C45.2415 46.5794 45.1006 47.13 44.6698 47.359C44.2397 47.588 43.7048 47.3967 43.5173 46.9455L42.4514 44.3761L43.4374 43.8518ZM31.6911 47.4441L33.7821 45.509L32.195 44.5923L31.5615 47.3688L31.6911 47.4441Z" fill="#F05D86"></path><path d="M35.6514 38.5525L36.4749 37.1249L38.0631 38.041L37.2395 39.4687L35.6514 38.5525Z" fill="#F05D86"></path><path d="M38.1976 37.8063L38.1945 37.8124L36.6074 36.8956L36.6104 36.8896C36.8628 36.4505 37.424 36.3006 37.8631 36.5537C38.3 36.8075 38.4507 37.3687 38.1976 37.8063Z" fill="#F05D86"></path><path d="M42.934 41.7034L43.4598 42.9372H45.1124V40.6699H42.3826C42.5378 40.9524 42.6884 41.2303 42.8255 41.4955C42.8421 41.5271 42.9166 41.6605 42.934 41.7034ZM41.1073 42.9372L40.9808 42.7414C40.9552 42.703 40.8866 42.5674 40.8708 42.5357C40.5589 41.9633 40.235 41.3268 39.9126 40.6707H36.9456L35.6379 42.9372H41.1073ZM32.7755 42.9372L34.0839 40.6699H31.5537V42.9372H32.7755Z" fill="#F05D86"></path><path d="M10.5898 10.2544H33.9409V35.112H10.5898V10.2544Z" fill="white"></path><path d="M33.564 10.6307V34.7351H10.9662V10.6307H33.564ZM34.3172 9.87744H10.2129V35.4883H34.3172V9.87744Z" fill="#3B33C8"></path><path d="M27.1615 12.8901C26.8619 12.8901 26.5745 13.0092 26.3626 13.2211C26.1507 13.433 26.0316 13.7204 26.0316 14.02C26.0316 14.3197 26.1507 14.6071 26.3626 14.819C26.5745 15.0309 26.8619 15.1499 27.1615 15.1499C27.4612 15.1499 27.7486 15.0309 27.9605 14.819C28.1724 14.6071 28.2914 14.3197 28.2914 14.02C28.2914 13.7204 28.1724 13.433 27.9605 13.2211C27.7486 13.0092 27.4612 12.8901 27.1615 12.8901ZM17.3691 12.8901C17.0695 12.8901 16.7821 13.0092 16.5702 13.2211C16.3583 13.433 16.2393 13.7204 16.2393 14.02C16.2393 14.3197 16.3583 14.6071 16.5702 14.819C16.7821 15.0309 17.0695 15.1499 17.3691 15.1499C17.6688 15.1499 17.9562 15.0309 18.1681 14.819C18.38 14.6071 18.499 14.3197 18.499 14.02C18.499 13.7204 18.38 13.433 18.1681 13.2211C17.9562 13.0092 17.6688 12.8901 17.3691 12.8901Z" fill="#4788C7"></path><path d="M17.3691 14.0204V11.384C17.3691 8.67978 19.5611 6.48779 22.2653 6.48779C24.9695 6.48779 27.1615 8.67978 27.1615 11.384V14.0204" stroke="#3B33C8" stroke-width="2.51087" stroke-miterlimit="10" stroke-linecap="round" stroke-linejoin="round"></path><path d="M26.7855 23.8125L19.2529 28.7087V18.9163L26.7855 23.8125Z" fill="#F05D86"></path></svg>
