<svg xmlns="http://www.w3.org/2000/svg" width="60" height="60" viewBox="0 0 60 60" fill="none"><path d="M18.201 56.25C16.023 56.25 14.25 54.477 14.25 52.299V7.701C14.25 5.523 16.023 3.75 18.201 3.75H41.799C43.977 3.75 45.75 5.523 45.75 7.701V52.299C45.75 54.477 43.977 56.25 41.799 56.25H18.201Z" fill="white"></path><path d="M41.799 4.5C43.5645 4.5 45 5.9355 45 7.701V52.299C45 54.0645 43.5645 55.5 41.799 55.5H18.201C16.4355 55.5 15 54.0645 15 52.299V7.701C15 5.9355 16.4355 4.5 18.201 4.5H41.799ZM41.799 3H18.201C15.6045 3 13.5 5.1045 13.5 7.701V52.299C13.5 54.8955 15.6045 57 18.201 57H41.799C44.3955 57 46.5 54.8955 46.5 52.299V7.701C46.5 5.1045 44.3955 3 41.799 3Z" fill="#3B33C8"></path><path d="M36 3H24C23.172 3 22.5 3.672 22.5 4.5C22.5 5.328 23.172 6 24 6H36C36.828 6 37.5 5.328 37.5 4.5C37.5 3.672 36.828 3 36 3Z" fill="#3B33C8"></path><g clip-path="url(#clip0_3205_7303)"><path d="M20.5977 17.5979H39.4012V41.9729H20.5977V17.5979Z" fill="#F05D86"></path><path d="M25.1242 24.2144H34.8742C35.2586 24.2144 35.5706 23.9024 35.5706 23.518C35.5706 23.1335 35.2586 22.8215 34.8742 22.8215H25.1242C24.7397 22.8215 24.4277 23.1335 24.4277 23.518C24.4277 23.9024 24.7397 24.2144 25.1242 24.2144ZM33.8295 28.393H35.2224C35.4146 28.393 35.5706 28.237 35.5706 28.0447C35.5706 27.8525 35.4146 27.6965 35.2224 27.6965H33.8295C33.6373 27.6965 33.4813 27.8525 33.4813 28.0447C33.4813 28.237 33.6373 28.393 33.8295 28.393ZM24.7759 28.393H31.7402C31.9324 28.393 32.0884 28.237 32.0884 28.0447C32.0884 27.8525 31.9324 27.6965 31.7402 27.6965H24.7759C24.5837 27.6965 24.4277 27.8525 24.4277 28.0447C24.4277 28.237 24.5837 28.393 24.7759 28.393ZM33.8295 31.1787H35.2224C35.4146 31.1787 35.5706 31.0227 35.5706 30.8305C35.5706 30.6382 35.4146 30.4822 35.2224 30.4822H33.8295C33.6373 30.4822 33.4813 30.6382 33.4813 30.8305C33.4813 31.0227 33.6373 31.1787 33.8295 31.1787ZM24.7759 31.1787H29.6509C29.8432 31.1787 29.9992 31.0227 29.9992 30.8305C29.9992 30.6382 29.8432 30.4822 29.6509 30.4822H24.7759C24.5837 30.4822 24.4277 30.6382 24.4277 30.8305C24.4277 31.0227 24.5837 31.1787 24.7759 31.1787ZM33.8295 33.9644H35.2224C35.4146 33.9644 35.5706 33.8084 35.5706 33.6162C35.5706 33.424 35.4146 33.268 35.2224 33.268H33.8295C33.6373 33.268 33.4813 33.424 33.4813 33.6162C33.4813 33.8084 33.6373 33.9644 33.8295 33.9644ZM24.7759 33.9644H31.7402C31.9324 33.9644 32.0884 33.8084 32.0884 33.6162C32.0884 33.424 31.9324 33.268 31.7402 33.268H24.7759C24.5837 33.268 24.4277 33.424 24.4277 33.6162C24.4277 33.8084 24.5837 33.9644 24.7759 33.9644ZM33.8295 36.7501H35.2224C35.4146 36.7501 35.5706 36.5941 35.5706 36.4019C35.5706 36.2097 35.4146 36.0537 35.2224 36.0537H33.8295C33.6373 36.0537 33.4813 36.2097 33.4813 36.4019C33.4813 36.5941 33.6373 36.7501 33.8295 36.7501ZM24.7759 36.7501H29.6509C29.8432 36.7501 29.9992 36.5941 29.9992 36.4019C29.9992 36.2097 29.8432 36.0537 29.6509 36.0537H24.7759C24.5837 36.0537 24.4277 36.2097 24.4277 36.4019C24.4277 36.5941 24.5837 36.7501 24.7759 36.7501Z" fill="white"></path></g><defs><clipPath id="clip0_3205_7303"><rect width="19.5" height="25.0714" fill="white" transform="translate(20.25 17.25)"></rect></clipPath></defs></svg>
