<svg xmlns="http://www.w3.org/2000/svg" width="60" height="60" viewBox="0 0 60 60" fill="none"><path d="M3.75 3.75H56.25V56.25H3.75V3.75Z" fill="white"></path><path d="M55.5 4.5V55.5H4.5V4.5H55.5ZM57 3H3V57H57V3Z" fill="#3B33C8"></path><path d="M9 9H51V37.5H9V9Z" fill="#F05D86"></path><path d="M37.5 46.5C37.5 48.9855 39.5145 51 42 51C41.4705 51 42.5295 51 42 51C44.4855 51 46.5 48.9855 46.5 46.5H37.5ZM26.25 48H9.75C9.336 48 9 47.664 9 47.25C9 46.836 9.336 46.5 9.75 46.5H26.25C26.664 46.5 27 46.836 27 47.25C27 47.664 26.664 48 26.25 48Z" fill="#3B33C8"></path><path d="M50.25 48H33.75C33.336 48 33 47.664 33 47.25C33 46.836 33.336 46.5 33.75 46.5H50.25C50.664 46.5 51 46.836 51 47.25C51 47.664 50.664 48 50.25 48Z" fill="#3B33C8"></path><path d="M31.5 13.5H46.5V18H31.5V13.5ZM31.5 21H46.5V25.5H31.5V21ZM31.5 28.5H46.5V33H31.5V28.5ZM13.5 13.5H28.5V18H13.5V13.5ZM13.5 21H28.5V25.5H13.5V21ZM13.5 28.5H28.5V33H13.5V28.5Z" fill="white"></path></svg>
