<svg xmlns="http://www.w3.org/2000/svg" width="60" height="60" viewBox="0 0 60 60" fill="none"><path d="M24.75 42.75H35.25V51.75H24.75V42.75Z" fill="#F05D86"></path><path d="M34.5 43.5V51H25.5V43.5H34.5ZM36 42H24V52.5H36V42Z" fill="#3B33C8"></path><path d="M2.25 6.75H57.75V45.75H2.25V6.75Z" fill="white"></path><path d="M57 7.5V45H3V7.5H57ZM58.5 6H1.5V46.5H58.5V6Z" fill="#3B33C8"></path><path d="M2.25 39.75H57.75V45.75H2.25V39.75Z" fill="#F05D86"></path><path d="M57 40.5V45H3V40.5H57ZM58.5 39H1.5V46.5H58.5V39Z" fill="#3B33C8"></path><path d="M14.25 54.75V54C14.25 51.933 15.933 50.25 18 50.25H42C44.067 50.25 45.75 51.933 45.75 54V54.75H14.25Z" fill="#F05D86"></path><path d="M42 51C43.6545 51 45 52.3455 45 54H15C15 52.3455 16.3455 51 18 51H42ZM42 49.5H18C15.5145 49.5 13.5 51.5145 13.5 54V55.5H46.5V54C46.5 51.5145 44.4855 49.5 42 49.5Z" fill="#3B33C8"></path><path d="M54.75 43.5H51.75C51.336 43.5 51 43.164 51 42.75C51 42.336 51.336 42 51.75 42H54.75C55.164 42 55.5 42.336 55.5 42.75C55.5 43.164 55.164 43.5 54.75 43.5Z" fill="white"></path><path d="M9.37568 33.75C9.04418 33.75 8.71268 33.606 8.48618 33.366C8.32118 33.1905 8.23718 32.9895 8.24918 32.799L8.25218 13.7505C8.23718 13.479 8.31218 13.2765 8.47118 13.1085C8.68268 12.8835 9.02168 12.75 9.37568 12.75H20.6242C21.2452 12.75 21.7492 13.1985 21.7492 13.7505V32.751C21.7492 33.303 21.2452 33.7515 20.6242 33.7515L9.37568 33.75Z" fill="#F05D86"></path><path d="M20.6247 13.5C20.8392 13.5 20.9997 13.632 20.9997 13.7505V32.751C20.9997 32.868 20.8392 33 20.6247 33H9.37771C9.17521 33 9.01771 32.8575 8.99971 32.8455L9.00271 32.7975V32.7495V13.7505V13.6875L9.00121 13.644C9.01321 13.6095 9.14971 13.5 9.37771 13.5H20.6247ZM20.6247 12H9.37771C8.34271 12 7.44421 12.729 7.50271 13.7505V32.751C7.44421 33.6615 8.34121 34.5 9.37771 34.5H20.6262C21.6612 34.5 22.5012 33.717 22.5012 32.7495V13.7505C22.4997 12.783 21.6597 12 20.6247 12Z" fill="#3B33C8"></path><path d="M8.25 17.25H21.75V29.25H8.25V17.25Z" fill="white"></path><path d="M21 18V28.5H9V18H21ZM22.5 16.5H7.5V30H22.5V16.5Z" fill="#3B33C8"></path><path d="M30.3747 33.75C30.0642 33.75 29.7582 33.612 29.5317 33.3735C29.3382 33.1665 29.2347 32.91 29.2482 32.67L29.2497 13.875C29.2302 13.479 29.3802 13.242 29.5107 13.104C29.7237 12.879 30.0387 12.75 30.3747 12.75H50.6247C51.2457 12.75 51.7497 13.254 51.7497 13.875V32.625C51.7497 33.246 51.2457 33.75 50.6247 33.75H30.3747Z" fill="#F05D86"></path><path d="M50.6248 13.5C50.8318 13.5 50.9998 13.668 50.9998 13.875V32.625C50.9998 32.832 50.8318 33 50.6248 33H30.3748C30.2743 33 30.1603 32.946 30.0778 32.8575C30.0148 32.79 29.9953 32.7315 29.9968 32.7135L29.9998 32.67V32.625V13.875V13.8345L29.9983 13.794C29.9938 13.7175 30.0103 13.6665 30.0553 13.6185C30.1108 13.5615 30.2233 13.5 30.3748 13.5H50.6248ZM50.6248 12H30.3748C29.3398 12 28.4413 12.7815 28.4998 13.875V32.625C28.4413 33.6015 29.3398 34.5 30.3748 34.5H50.6248C51.6598 34.5 52.4998 33.66 52.4998 32.625V13.875C52.4998 12.84 51.6598 12 50.6248 12Z" fill="#3B33C8"></path><path d="M29.25 17.25H51.75V29.25H29.25V17.25Z" fill="white"></path><path d="M51 18V28.5H30V18H51ZM52.5 16.5H28.5V30H52.5V16.5Z" fill="#3B33C8"></path></svg>
